<?xml version="1.0" standalone="no"?>
<!DOCTYPE svg PUBLIC "-//W3C//DTD SVG 20010904//EN"
 "http://www.w3.org/TR/2001/REC-SVG-20010904/DTD/svg10.dtd">
<svg version="1.0" xmlns="http://www.w3.org/2000/svg"
 width="346.000000pt" height="346.000000pt" viewBox="0 0 346.000000 346.000000"
 preserveAspectRatio="xMidYMid meet">
<metadata>
Created by potrace 1.11, written by Peter Selinger 2001-2013
</metadata>
<g transform="translate(0.000000,346.000000) scale(0.100000,-0.100000)"
fill="#000000" stroke="none">
<path d="M1585 3247 c-11 -6 -48 -12 -81 -13 -116 -2 -182 -74 -170 -185 5
-53 3 -63 -30 -121 -20 -35 -53 -101 -74 -148 l-37 -85 -52 -3 -51 -3 0 -100
0 -99 -170 0 -170 0 0 -444 c0 -375 -2 -445 -14 -456 -8 -6 -22 -31 -31 -54
-22 -57 -8 -113 39 -154 61 -53 131 -53 192 0 47 41 61 97 39 154 -9 23 -23
48 -31 54 -12 11 -14 70 -14 366 l0 354 80 0 80 0 0 -670 0 -670 100 0 100 0
0 -190 0 -190 -210 0 -210 0 0 -94 0 -94 223 -4 c122 -2 259 -2 305 0 l82 4 0
284 0 284 190 0 190 0 0 -284 0 -284 73 -4 c39 -2 174 -1 300 1 l227 3 0 94 0
94 -200 0 -200 0 0 190 0 190 95 0 95 0 0 670 0 670 80 0 80 0 0 -350 0 -349
-26 -38 c-22 -33 -25 -46 -22 -97 4 -52 8 -63 40 -92 80 -73 196 -48 233 50
21 55 14 103 -20 145 l-25 29 0 441 0 441 -170 0 -170 0 0 100 0 100 -50 0
-49 0 -23 53 c-12 28 -44 95 -71 147 -45 87 -49 101 -50 170 -2 61 -6 81 -25
108 -33 45 -76 65 -147 66 -33 1 -70 7 -82 14 -28 15 -142 15 -168 -1z"/>
</g>
</svg>
